<svg height="89.4" viewBox="0 0 82.7 89.4" width="82.7" xmlns="http://www.w3.org/2000/svg"><path d="m12.5 85.4c-2.1 0-19.6-66.9 29.9-66.9 43.8 0 31.2 60.7 27 66.9" fill="none" stroke="#231f20" stroke-miterlimit="10" stroke-width="3"/><g fill="#231f20"><path d="m22.8 22.3s-4.9-9.5-6.6-8.4-5.4 9.8-9.4 2.1 5.9-12.3 10.1-8.9 7.3 14.9 7.3 14.9zm36.9-1.5s5.2-9.3 6.9-8.1 5 10 9.3 2.5-5.3-12.6-9.7-9.3-7.9 14.5-7.9 14.5z" stroke="#231f20" stroke-miterlimit="10" stroke-width="3"/><circle cx="35.3" cy="34.7" r="1.7" stroke="#231f20" stroke-miterlimit="10"/><circle cx="25.6" cy="59" r=".7"/><circle cx="21.6" cy="59" r=".7"/><circle cx="23.7" cy="62.2" r=".7"/><circle cx="64.8" cy="59" r=".7"/><circle cx="60.8" cy="59" r=".7"/><circle cx="62.9" cy="62.2" r=".7"/><circle cx="50.3" cy="34.7" r="1.7" stroke="#231f20" stroke-miterlimit="10"/></g><path d="m35.3 42.8s9.6-4.8 16.8 0m-13.5 2.6s5.7-2.2 9.7 0m12.5 4.4c-2.5-1.9-7 .1-7 .1-10.9-5.1-17.7-1.4-20.3.5-1.2-.6-5-1.6-7.9.2m34.5 1.7c.5-.1-3.1-1.9-6.3-2.4m-26.7 3.5c-.4 0 1.8-3 6.4-2.8" fill="none" stroke="#231f20" stroke-linecap="round" stroke-miterlimit="10" stroke-width="2"/><path d="m38.6 53.4s5.7-2.3 10.8.9c3.1 1.9-1.4 11.1-2.7 11.1h-6.4c-1.1 0-7.4-9.7-1.7-12z" fill="#231f20" stroke="#231f20" stroke-linecap="round" stroke-miterlimit="10" stroke-width="2"/><path d="m42.7 62.2s-2.4 11.2-15.2 9.1m16.5-7.9s2.3 11.2 15.1 9.1m-21.4-1.8c-.8 5.1 9 9.9 12.7.9" fill="none" stroke="#231f20" stroke-linecap="round" stroke-miterlimit="10" stroke-width="2"/></svg>