<svg height="127.7" viewBox="0 0 150.3 127.7" width="150.3" xmlns="http://www.w3.org/2000/svg"><path d="m77.5 88.6c-2 0-19.6-66.9 29.9-66.9 43.8 0 31.2 60.7 27 66.9" fill="none" stroke="#fff" stroke-miterlimit="10" stroke-width="3"/><path d="m87.8 25.5s-4.9-9.5-6.6-8.4-5.4 9.8-9.4 2.1 5.9-12.4 10.1-8.9 7.3 14.9 7.3 14.9z" fill="#fff" stroke="#fff" stroke-miterlimit="10" stroke-width="3"/><path d="m124.7 24s5.2-9.3 6.9-8.1 5 10 9.3 2.5-5.3-12.6-9.7-9.3-7.9 14.5-7.9 14.5z" fill="#fff" stroke="#fff" stroke-miterlimit="10" stroke-width="3"/><circle cx="100.3" cy="37.9" fill="#fff" r="1.7" stroke="#fff" stroke-miterlimit="10"/><circle cx="90.6" cy="62.2" fill="#fff" r=".7"/><circle cx="86.6" cy="62.2" fill="#fff" r=".7"/><circle cx="88.7" cy="65.4" fill="#fff" r=".7"/><circle cx="129.8" cy="62.2" fill="#fff" r=".7"/><circle cx="125.8" cy="62.2" fill="#fff" r=".7"/><circle cx="127.9" cy="65.4" fill="#fff" r=".7"/><circle cx="115.3" cy="37.9" fill="#fff" r="1.7" stroke="#fff" stroke-miterlimit="10"/><circle cx="29.1" cy="56.6" fill="#fff" r="1.7" stroke="#fff" stroke-miterlimit="10"/><circle cx="44.1" cy="56.6" fill="#fff" r="1.7" stroke="#fff" stroke-miterlimit="10"/><circle cx="32.7" cy="10" fill="#fff" r="1.7" stroke="#fff" stroke-miterlimit="10"/><circle cx="40.5" cy="10" fill="#fff" r="1.7" stroke="#fff" stroke-miterlimit="10"/><path d="m100.3 46s9.6-4.8 16.8 0" fill="none" stroke="#fff" stroke-linecap="round" stroke-miterlimit="10" stroke-width="2"/><path d="m103.7 48.6s5.7-2.2 9.6 0" fill="none" stroke="#fff" stroke-linecap="round" stroke-miterlimit="10" stroke-width="2"/><path d="m125.8 53c-2.5-1.9-7 .1-7 .1-10.9-5.1-17.7-1.4-20.3.5-1.2-.6-4.9-1.6-7.9.2" fill="none" stroke="#fff" stroke-linecap="round" stroke-miterlimit="10" stroke-width="2"/><path d="m125.1 55.5c.5-.1-3.1-1.9-6.3-2.4" fill="none" stroke="#fff" stroke-linecap="round" stroke-miterlimit="10" stroke-width="2"/><path d="m92.1 56.6c-.4 0 1.8-3 6.4-2.8" fill="none" stroke="#fff" stroke-linecap="round" stroke-miterlimit="10" stroke-width="2"/><path d="m103.6 56.6s5.7-2.3 10.8.9c3.1 1.9-1.4 11.1-2.7 11.1h-6.4c-1.1 0-7.4-9.7-1.7-12z" fill="#fff" stroke="#fff" stroke-linecap="round" stroke-miterlimit="10" stroke-width="2"/><path d="m107.7 65.4s-2.3 11.2-15.1 9.1" fill="none" stroke="#fff" stroke-linecap="round" stroke-miterlimit="10" stroke-width="2"/><path d="m109 66.6s2.3 11.2 15.1 9.1" fill="none" stroke="#fff" stroke-linecap="round" stroke-miterlimit="10" stroke-width="2"/><path d="m102.7 73.9c-.8 5.1 9 9.9 12.7.9" fill="none" stroke="#fff" stroke-linecap="round" stroke-miterlimit="10" stroke-width="2"/><path d="m60 88.6c10.5-5 21.7-53.4-22.4-54.8h-3.8c-41 .2-31.6 49.8-18.6 54.8" fill="none" stroke="#fff" stroke-miterlimit="10" stroke-width="3"/><rect fill="#fff" height="10.53" rx="1.9" width="3.7" x="25.5" y="33.8"/><rect fill="#fff" height="10.53" rx="1.9" width="3.7" x="32.9" y="33.8"/><rect fill="#fff" height="10.53" rx="1.9" width="3.7" x="40.2" y="33.8"/><ellipse cx="35.3" cy="66.7" fill="#fff" rx="2" ry="3.1" transform="matrix(.78477637 -.61977903 .61977903 .78477637 -33.8 36.3)"/><ellipse cx="37.3" cy="66.6" fill="#fff" rx="3.1" ry="2" transform="matrix(.61977903 -.78477637 .78477637 .61977903 -38.1 54.6)"/><path d="m36.8 67.6c7.2 13 19 6.7 19 6.7 6.1-2.9 3.9-11.3 0-12.5" fill="none" stroke="#fff" stroke-linecap="round" stroke-miterlimit="10" stroke-width="2"/><path d="m36.8 67.6c-7.3 13-19.1 6.7-19.1 6.7-6-2.9-3.9-11.3.1-12.5" fill="none" stroke="#fff" stroke-linecap="round" stroke-miterlimit="10" stroke-width="2"/><path d="m9.1 44.3a76.1 76.1 0 0 1 -1.7-13.9c0-4.2 1.1-6.7 2.9-6.7 3.4 0 12 2 14 10.3" fill="none" stroke="#fff" stroke-linecap="round" stroke-miterlimit="10" stroke-width="3"/><path d="m20.2 35.8c.4-.5-7.1-9.1-10.4-7.1a4.8 4.8 0 0 0 -2.3 4.4" fill="none" stroke="#fff" stroke-linecap="round" stroke-miterlimit="10" stroke-width="3"/><path d="m14.4 35.1v4" fill="none" stroke="#fff" stroke-linecap="round" stroke-miterlimit="10" stroke-width="3"/><path d="m11.3 35.2 2.1 5.1" fill="none" stroke="#fff" stroke-linecap="round" stroke-miterlimit="10" stroke-width="3"/><path d="m64 45.5a119.2 119.2 0 0 0 2-15.4c0-2.2.7-5.4-1.5-5.9s-13.3 2.5-15.2 10.9" fill="none" stroke="#fff" stroke-linecap="round" stroke-miterlimit="10" stroke-width="3"/><path d="m53.4 37.1c.4-2.1 4.3-9.7 10.3-7.6 2.9 1 2.1 4.3 2.1 4.3" fill="none" stroke="#fff" stroke-linecap="round" stroke-miterlimit="10" stroke-width="3"/><path d="m59.2 35.1-.4 5.2" fill="none" stroke="#fff" stroke-linecap="round" stroke-miterlimit="10" stroke-width="3"/><path d="m62 36.6-2.8 4" fill="none" stroke="#fff" stroke-linecap="round" stroke-miterlimit="10" stroke-width="3"/><path d="m52.7 19.3c0-9.4-3.4-15.9-16.3-16.5s-16.2 5.4-16.9 14.9c0 0-2 10.6 17.1 12.4 14.5 1.3 16.1-10.8 16.1-10.8z" fill="none" stroke="#fff" stroke-linecap="round" stroke-miterlimit="10" stroke-width="3"/><g fill="#fff"><path d="m16 96c0 .7.1 1.2.1 1.6h-.5a6.8 6.8 0 0 0 -1.3-3.3 2.9 2.9 0 0 0 -2.3-1h-1.6c-.2.1-.4.2-.4.4a2.8 2.8 0 0 0 -.1 1v5.3h.7a2.1 2.1 0 0 0 1.7-.8 6 6 0 0 0 .8-2h.5a12.7 12.7 0 0 0 -.1 2v1c0 .7.1 1.7.1 3h-.4c-.3-1.8-1.2-2.8-2.6-2.8h-.7v4.9a4.1 4.1 0 0 0 .1 1.2 1.2 1.2 0 0 0 .7.5l1.4.2v.4h-7.2v-.4l1.1-.2a.7.7 0 0 0 .4-.5 3.1 3.1 0 0 0 .1-1.1v-10.3a3.8 3.8 0 0 0 -.1-1.2 1 1 0 0 0 -.4-.5h-1.1v-.5h11.3c-.1 1.1-.2 2.2-.2 3.1z"/><path d="m24 93.3h-1.1a1.2 1.2 0 0 0 -.5.5 3.8 3.8 0 0 0 -.1 1.2v10.6a2.5 2.5 0 0 0 .1 1c.1.2.2.4.4.4h1.8a3.2 3.2 0 0 0 2.5-1.2 7 7 0 0 0 1.4-3.5h.4v1.9a32.2 32.2 0 0 0 .1 3.3h-11.6v-.4l1-.2c.2-.1.4-.2.4-.5a3.1 3.1 0 0 0 .1-1.1v-10.2a3.8 3.8 0 0 0 -.1-1.2.7.7 0 0 0 -.4-.5h-1v-.5h6.6z"/><path d="m43.5 93.3a2 2 0 0 0 -1 .3 1.4 1.4 0 0 0 -.5.8 7.1 7.1 0 0 0 -.1 1.6v5.6a8.9 8.9 0 0 1 -.9 4.5 3.2 3.2 0 0 1 -1.6 1.4 6.7 6.7 0 0 1 -2.6.5 6.1 6.1 0 0 1 -3.8-1 4.4 4.4 0 0 1 -1.3-2 14.2 14.2 0 0 1 -.3-3.3v-6.6a3.3 3.3 0 0 0 -.2-1.2.7.7 0 0 0 -.4-.5h-1v-.5h6.6v.5h-1.1a1.2 1.2 0 0 0 -.5.5 3.8 3.8 0 0 0 -.1 1.2v7.9a6.5 6.5 0 0 0 .6 3.2 2.6 2.6 0 0 0 2.3 1.1 3.4 3.4 0 0 0 3-1.4 9 9 0 0 0 .8-4.1v-5.5a8.7 8.7 0 0 0 -.1-1.8 1.5 1.5 0 0 0 -.6-.9 3.5 3.5 0 0 0 -1.3-.3v-.5h4.1z"/><path d="m55.7 96v1.6h-.5a6.9 6.9 0 0 0 -1.2-3.3 3.3 3.3 0 0 0 -2.4-1h-1.6a.8.8 0 0 0 -.4.4 2.8 2.8 0 0 0 -.1 1v5.3h.7a2 2 0 0 0 1.7-.8 4.4 4.4 0 0 0 .8-2h.5c0 .6-.1 1.3-.1 2v1c0 .7.1 1.7.2 3h-.5c-.3-1.8-1.2-2.8-2.6-2.8h-.7v4.9a2.2 2.2 0 0 0 .2 1.2c.1.3.3.4.6.5l1.4.2v.4h-7.1v-.4l1-.2c.2-.1.4-.2.4-.5a3.1 3.1 0 0 0 .1-1.1v-10.3a3.8 3.8 0 0 0 -.1-1.2.7.7 0 0 0 -.4-.5h-1v-.5h11.2c-.1 1.1-.1 2.2-.1 3.1z"/><path d="m68.1 96a7.1 7.1 0 0 0 .1 1.6h-.5a6.8 6.8 0 0 0 -1.3-3.3 3.1 3.1 0 0 0 -2.3-1h-1.7a.8.8 0 0 0 -.4.4 2.8 2.8 0 0 0 -.1 1v5.3h.7a1.9 1.9 0 0 0 1.7-.8 4.4 4.4 0 0 0 .8-2h.5v3c0 .7 0 1.7.1 3h-.5c-.3-1.8-1.1-2.8-2.6-2.8h-.7v4.9a3.7 3.7 0 0 0 .2 1.2c.1.3.3.4.6.5l1.5.2v.4h-7.2v-.4a2.2 2.2 0 0 0 1-.2.8.8 0 0 0 .5-.5c0-.2.1-.6.1-1.1v-10.3c0-.6-.1-.9-.1-1.2a1.2 1.2 0 0 0 -.5-.5h-1v-.5h11.2c-.1 1.1-.1 2.2-.1 3.1z"/><path d="m81.7 92.8v.4c-.7.3-1.3 1.1-2 2.5l-2.5 4.9v4.9a3.1 3.1 0 0 0 .1 1.1.7.7 0 0 0 .4.5l1.1.2v.4h-6.5v-.4l1-.2a.7.7 0 0 0 .4-.5 3.1 3.1 0 0 0 .1-1.1v-3.6l-4-7.5c-.4-.7-.9-1.1-1.2-1.1v-.5h6.4v.5h-1.2a.5.5 0 0 0 -.4.5 4.3 4.3 0 0 1 .1.5l3.2 6.1 1.7-3.3a6.8 6.8 0 0 0 .8-2.6 1.2 1.2 0 0 0 -.5-1l-1.2-.4v-.4h4.2z"/><path d="m94.1 92.8a4.2 4.2 0 0 1 1.4.6l.4.2h.3l.3-.2c0-.2.1-.4.1-.7h.5c-.1.9-.1 2.5-.1 4.8h-.5a5.4 5.4 0 0 0 -.5-2.2 4.3 4.3 0 0 0 -1.2-1.7 2.8 2.8 0 0 0 -1.8-.6 2.4 2.4 0 0 0 -1.7.6 2 2 0 0 0 -.7 1.5 2 2 0 0 0 .4 1.3 3.9 3.9 0 0 0 .8 1l1.8 1.2.7.5 1.9 1.4a5.3 5.3 0 0 1 1.2 1.4 4.1 4.1 0 0 1 .4 1.9 3.5 3.5 0 0 1 -.7 2.3 4 4 0 0 1 -1.8 1.3 5.9 5.9 0 0 1 -2.7.5l-1.9-.2a3.9 3.9 0 0 1 -1.5-.6l-.7-.3q-.1 0-.3.3a3.5 3.5 0 0 0 -.1.7h-.5c0-.9.1-2.8.1-5.7h.4a8.1 8.1 0 0 0 1.1 3.8 3 3 0 0 0 2.8 1.5 2.8 2.8 0 0 0 1.8-.6 2.3 2.3 0 0 0 .8-1.8 3 3 0 0 0 -.8-2 10.5 10.5 0 0 0 -2.4-1.9l-2-1.4a4.4 4.4 0 0 1 -1.2-1.5 3 3 0 0 1 -.5-1.9 3.4 3.4 0 0 1 2.3-3.3 6.1 6.1 0 0 1 2.4-.4 4.2 4.2 0 0 1 1.7.2z"/><path d="m113.8 93.4a1.2 1.2 0 0 0 -.5.5c0 .3-.1.6-.1 1.2v10.4c0 .5.1.9.1 1.1a.8.8 0 0 0 .5.5 2.2 2.2 0 0 0 1 .2v.4h-6.5v-.4a2.2 2.2 0 0 0 1-.2.8.8 0 0 0 .5-.5c0-.2.1-.6.1-1.1v-5h-5.6v5c0 .5.1.9.1 1.1a.6.6 0 0 0 .5.5 2.2 2.2 0 0 0 1 .2v.4h-6.5v-.4a2.2 2.2 0 0 0 1-.2.8.8 0 0 0 .5-.5c0-.2.1-.6.1-1.1v-10.4c0-.6-.1-.9-.1-1.2l-.5-.5h-1v-.5h6.5v.5h-1a.8.8 0 0 0 -.5.5c0 .3-.1.6-.1 1.2v4.9h5.6v-4.9c0-.6-.1-.9-.1-1.2a1.2 1.2 0 0 0 -.5-.5h-1v-.5h6.5v.5z"/><path d="m127.6 93.5a5.7 5.7 0 0 1 2.5 2.6 7.6 7.6 0 0 1 1 4.1 8 8 0 0 1 -1 4.1 6.8 6.8 0 0 1 -2.6 2.7 7.1 7.1 0 0 1 -3.9 1 8.3 8.3 0 0 1 -3.9-.9 7.2 7.2 0 0 1 -2.6-2.6 8.6 8.6 0 0 1 -.9-4.1 8 8 0 0 1 1-4.1 7 7 0 0 1 2.6-2.8 8 8 0 0 1 3.9-.9 8.6 8.6 0 0 1 3.9.9zm-6.1.4a5.8 5.8 0 0 0 -1.3 2.6 14.6 14.6 0 0 0 -.5 3.8 14.8 14.8 0 0 0 .5 3.9 6.6 6.6 0 0 0 1.5 2.5 2.8 2.8 0 0 0 2 .9 2.9 2.9 0 0 0 2.1-.9 7 7 0 0 0 1.3-2.6 14.8 14.8 0 0 0 .5-3.9 11.2 11.2 0 0 0 -.6-3.8 5.9 5.9 0 0 0 -1.4-2.6 2.8 2.8 0 0 0 -2-.9 2.6 2.6 0 0 0 -2.1 1z"/><path d="m145.3 96.4a7.1 7.1 0 0 0 .1 1.6h-.5a7.7 7.7 0 0 0 -1.4-3.6 3 3 0 0 0 -2.4-1.1h-.5v12a3.9 3.9 0 0 0 .2 1.3c.1.3.4.4.7.5a4.1 4.1 0 0 0 1.4.2v.4h-7.8v-.4l1.4-.2c.3-.1.5-.2.6-.5a3.9 3.9 0 0 0 .2-1.3v-12h-.5a3.4 3.4 0 0 0 -1.7.5 5.8 5.8 0 0 0 -1.2 1.4 12 12 0 0 0 -.8 2.8h-.5v-1.6c0-1 0-2.2-.1-3.6h13c-.1 1.4-.2 2.6-.2 3.6z"/><path d="m2.8 122v-10.6h4.5a2.7 2.7 0 0 1 1.2.3l1 .7a4.1 4.1 0 0 1 .7 1.1 4 4 0 0 1 0 2.5l-.6 1.1-1 .7a2.8 2.8 0 0 1 -1.3.3h-3.4v3.9zm1.1-4.8h3.4l.8-.2.7-.6a2 2 0 0 0 .4-.8 2.1 2.1 0 0 0 0-1.8 2.2 2.2 0 0 0 -.5-.8 1.8 1.8 0 0 0 -.7-.5l-.8-.2h-3.3z"/><path d="m19.3 121.1v.9h-7.1v-10.6h7v.9h-6v3.8h5.2v.9h-5.2v4.1z"/><path d="m28.9 112.3h-3.8v9.7h-1.1v-9.7h-3.8v-.9h8.7z"/><path d="m33.9 122v-10.6h4.4a2.4 2.4 0 0 1 1.2.3 2.6 2.6 0 0 1 1 .7 4.1 4.1 0 0 1 .7 1.1 2.5 2.5 0 0 1 .2 1.2 2.7 2.7 0 0 1 -.2 1.3 3 3 0 0 1 -.6 1.1l-1 .7a2.7 2.7 0 0 1 -1.2.3h-3.5v3.9zm1-4.8h3.4l.9-.2.6-.6a2 2 0 0 0 .4-.8 2.1 2.1 0 0 0 0-1.8 2.2 2.2 0 0 0 -.5-.8 1.5 1.5 0 0 0 -.6-.5l-.9-.2h-3.3z"/><path d="m51.6 111.4v10.6h-1v-5h-6.4v5h-1v-10.6h1v4.7h6.4v-4.7z"/><path d="m58.6 122.1a4.6 4.6 0 0 1 -2.1-.5 6.1 6.1 0 0 1 -1.6-1.2 9.5 9.5 0 0 1 -1-1.7 6.9 6.9 0 0 1 -.3-2 6.4 6.4 0 0 1 .3-2 5.4 5.4 0 0 1 1.1-1.8 4.8 4.8 0 0 1 1.6-1.2 4.5 4.5 0 0 1 2-.4 4.6 4.6 0 0 1 2 .5 6.1 6.1 0 0 1 1.6 1.2 9.5 9.5 0 0 1 1 1.7 6.9 6.9 0 0 1 .3 2 6.4 6.4 0 0 1 -.3 2 5.4 5.4 0 0 1 -1.1 1.8 4.8 4.8 0 0 1 -1.6 1.2 5.8 5.8 0 0 1 -1.9.4zm-4-5.4a5.1 5.1 0 0 0 .3 1.7 6.4 6.4 0 0 0 .8 1.4l1.2 1a4.7 4.7 0 0 0 1.7.3 4.1 4.1 0 0 0 1.6-.3 3.2 3.2 0 0 0 1.2-1.1 3.9 3.9 0 0 0 .8-1.4 4.5 4.5 0 0 0 .3-1.6 5.1 5.1 0 0 0 -.3-1.7 6.4 6.4 0 0 0 -.8-1.4l-1.3-1a3.7 3.7 0 0 0 -1.5-.3 4.7 4.7 0 0 0 -1.7.3 4 4 0 0 0 -1.2 1 4.4 4.4 0 0 0 -.8 1.5 4.1 4.1 0 0 0 -.3 1.6z"/><path d="m72.6 112.3h-3.8v9.7h-1.1v-9.7h-3.7v-.9h8.6z"/><path d="m78 122.1a5 5 0 0 1 -2.1-.5 4.4 4.4 0 0 1 -1.5-1.2 6.2 6.2 0 0 1 -1.1-1.7 6.9 6.9 0 0 1 -.3-2 4.5 4.5 0 0 1 .4-2 5.2 5.2 0 0 1 1-1.8 6.1 6.1 0 0 1 1.6-1.2 4.5 4.5 0 0 1 2-.4 4.6 4.6 0 0 1 2 .5 4.8 4.8 0 0 1 1.6 1.2 5.9 5.9 0 0 1 1 1.7 7.1 7.1 0 0 1 .4 2 6.5 6.5 0 0 1 -.4 2 5.4 5.4 0 0 1 -1.1 1.8 4.4 4.4 0 0 1 -1.5 1.2 7.1 7.1 0 0 1 -2 .4zm-4-5.4a5.1 5.1 0 0 0 .3 1.7 6.4 6.4 0 0 0 .8 1.4l1.3 1a3.8 3.8 0 0 0 1.6.3 4.1 4.1 0 0 0 1.6-.3 4.5 4.5 0 0 0 1.3-1.1 3.7 3.7 0 0 0 .7-1.4 4.5 4.5 0 0 0 .3-1.6 5.1 5.1 0 0 0 -.3-1.7 3.9 3.9 0 0 0 -.8-1.4 5.8 5.8 0 0 0 -1.2-1 4.1 4.1 0 0 0 -1.6-.3 4.7 4.7 0 0 0 -1.7.3 4 4 0 0 0 -1.2 1 7.1 7.1 0 0 0 -.8 1.5 4.1 4.1 0 0 0 -.3 1.6z"/><path d="m92.6 120.5a4.4 4.4 0 0 1 -5.4 1.1 4.4 4.4 0 0 1 -1.5-1.2 6.2 6.2 0 0 1 -1.1-1.7 7.1 7.1 0 0 1 -.4-2 7.8 7.8 0 0 1 .4-2.1 9.5 9.5 0 0 1 1-1.7 6.1 6.1 0 0 1 1.6-1.2 4.5 4.5 0 0 1 2-.4l1.4.2 1.1.4a3.6 3.6 0 0 1 .9.8 2.4 2.4 0 0 1 .6.9l-.8.6a3.2 3.2 0 0 0 -1.3-1.5 4.2 4.2 0 0 0 -2-.5 3.7 3.7 0 0 0 -1.5.4l-1.3 1a3.7 3.7 0 0 0 -.7 1.4 5.1 5.1 0 0 0 -.3 1.7 4.7 4.7 0 0 0 .3 1.7 6.4 6.4 0 0 0 .8 1.4l1.3 1a4.1 4.1 0 0 0 1.6.3 3.3 3.3 0 0 0 1.7-.4 4.8 4.8 0 0 0 1.6-1.3v-1.8h-2.3v-.8h3.2v5.2h-.9z"/><path d="m95.7 122v-10.6h4.5a3.1 3.1 0 0 1 1.3.3l1 .7a3.9 3.9 0 0 1 .6 1.1 2.5 2.5 0 0 1 .2 1.2 3.7 3.7 0 0 1 -.1 1.1 3.1 3.1 0 0 1 -.5 1 2.7 2.7 0 0 1 -.8.7 2.5 2.5 0 0 1 -.9.4l2.6 4.1h-1.2l-2.5-3.9h-3.2v3.9zm1-4.8h3.5l.9-.2.6-.6a2 2 0 0 0 .4-.8 2.1 2.1 0 0 0 0-1.8 5.9 5.9 0 0 0 -.4-.8l-.7-.5-.9-.2h-3.4z"/><path d="m108.6 111.4h.9l4.4 10.6h-1.1l-1.4-3.3h-4.7l-1.4 3.3h-1.1zm2.6 6.5-2.1-5.3-2.2 5.3z"/><path d="m115.5 122v-10.6h4.4a2.4 2.4 0 0 1 1.2.3 2.6 2.6 0 0 1 1 .7 4.1 4.1 0 0 1 .7 1.1 2.5 2.5 0 0 1 .2 1.2 2.7 2.7 0 0 1 -.2 1.3 3 3 0 0 1 -.6 1.1l-1 .7a2.7 2.7 0 0 1 -1.2.3h-3.5v3.9zm1-4.8h3.4l.9-.2.6-.6a2 2 0 0 0 .4-.8 2.1 2.1 0 0 0 0-1.8 2.2 2.2 0 0 0 -.5-.8 1.5 1.5 0 0 0 -.6-.5l-.9-.2h-3.3z"/><path d="m133.2 111.4v10.6h-1v-5h-6.4v5h-1v-10.6h1v4.7h6.4v-4.7z"/><path d="m135.9 111.4 3.5 5.7 3.5-5.7h1.2l-4.2 6.7v3.9h-1v-4l-4.1-6.6z"/></g><path d="m28.8 16.6c-.1-3.9 14.9-4.5 15.3 0z" fill="none" stroke="#fff" stroke-miterlimit="10" stroke-width="2"/><path d="m44.1 16.6c.1 5.1-14.9 5.9-15.3 0z" fill="none" stroke="#fff" stroke-miterlimit="10" stroke-width="2"/><path d="m29.2 29.1a20.9 20.9 0 0 1 0 4" fill="none" stroke="#fff" stroke-linecap="round" stroke-miterlimit="10" stroke-width="3"/><path d="m45.2 29.1a20.9 20.9 0 0 1 0 4" fill="none" stroke="#fff" stroke-linecap="round" stroke-miterlimit="10" stroke-width="3"/><path d="m7.4 88.6h137" fill="none" stroke="#fff" stroke-linecap="round" stroke-miterlimit="10" stroke-width="3"/></svg>